<svg width="65" height="87" viewBox="0 0 65 87" fill="none" xmlns="http://www.w3.org/2000/svg">
<path d="M4.19355 87V70.5964L30.5882 43.5C33.7951 40.2598 36.0974 37.4246 37.4953 34.9944C38.8931 32.5642 39.592 30.0936 39.592 27.5824C39.592 24.5042 38.5231 22.1955 36.3852 20.6564C34.3295 19.1173 31.3283 18.3478 27.3814 18.3478C24.0923 18.3478 20.7211 18.9553 17.2676 20.1704C13.8963 21.3045 10.4839 23.1676 7.03036 25.7598L0 9.47765C3.86464 6.56145 8.51044 4.25279 13.9374 2.55167C19.3643 0.850557 24.9557 0 30.7116 0C40.8254 0 48.5136 2.14665 53.7761 6.43994C59.1208 10.7332 61.7932 16.9302 61.7932 25.0307C61.7932 30.2151 60.5598 35.1969 58.093 39.9763C55.7084 44.6746 51.7204 49.6969 46.129 55.0433L25.9013 74.4846V68.7737H65V87H4.19355Z" fill="#E2E6F1"/>
</svg>
