<svg width="65" height="87" viewBox="0 0 65 87" fill="none" xmlns="http://www.w3.org/2000/svg">
<path d="M31.2195 87C25.1219 87 19.2276 86.2022 13.5366 84.6066C7.92683 82.9312 3.41463 80.6974 0 77.9051L6.82927 61.63C10.4065 64.1032 14.187 65.9381 18.1707 67.1348C22.1545 68.3315 26.2602 68.9298 30.4878 68.9298C34.878 68.9298 38.1707 68.2118 40.3658 66.7758C42.561 65.26 43.6585 63.0261 43.6585 60.0743C43.6585 57.282 42.6423 55.2077 40.6098 53.8514C38.6585 52.4952 35.7317 51.8171 31.8293 51.8171H16.7073V34.5846H29.6341C33.1301 34.5846 35.8943 33.8666 37.9268 32.4305C39.9593 30.9147 40.9756 28.8005 40.9756 26.088C40.9756 23.4553 40 21.4608 38.0488 20.1045C36.0976 18.7483 33.252 18.0702 29.5122 18.0702C21.7073 18.0702 14.6341 20.5034 8.29268 25.37L1.46341 9.33425C5.12195 6.38239 9.63415 4.10866 15 2.51306C20.3659 0.837688 25.935 0 31.7073 0C41.3008 0 48.8211 2.07428 54.2683 6.22283C59.7154 10.2916 62.439 15.956 62.439 23.216C62.439 28.0825 61.0163 32.271 58.1707 35.7813C55.4065 39.2916 51.5854 41.6052 46.7073 42.7221V41.0468C52.3984 41.9243 56.8699 44.2779 60.1219 48.1073C63.374 51.8569 65 56.564 65 62.2283C65 69.8872 61.9919 75.9505 55.9756 80.4182C49.9593 84.806 41.7073 87 31.2195 87Z" fill="#E2E6F1"/>
</svg>
