<svg width="112" height="84" viewBox="0 0 112 84" fill="none" xmlns="http://www.w3.org/2000/svg">
<path d="M0 84L0 0L107.153 0C108.066 0.00102276 108.961 0.20474 109.734 0.587735C110.506 0.97073 111.126 1.51747 111.521 2.16511C111.917 2.81274 112.072 3.53501 111.969 4.24889C111.866 4.96277 111.509 5.6393 110.939 6.20073L80.1174 42L110.939 77.7993C111.509 78.3607 111.866 79.0372 111.969 79.7511C112.072 80.465 111.917 81.1873 111.521 81.8349C111.126 82.4825 110.506 83.0293 109.734 83.4123C108.961 83.7953 108.066 83.999 107.153 84L0 84Z" fill="#E2E6F1"/>
</svg>
