<svg width="96" height="96" viewBox="0 0 96 96" fill="none" xmlns="http://www.w3.org/2000/svg">
<rect width="96" height="96" rx="48" fill="#40A7E3"/>
<path d="M61.7731 52.3135H75.3448C78.7995 52.3135 81.6002 49.5129 81.6002 46.0582V33.3438C81.6002 31.6165 80.1998 30.2162 78.4725 30.2162H17.5278C15.8004 30.2162 14.4001 31.6165 14.4001 33.3438V46.0582C14.4001 49.5129 17.2008 52.3135 20.6555 52.3135H36.3461" stroke="white" stroke-width="6"/>
<mask id="path-3-inside-1_2153_167" fill="white">
<path d="M30 17.4134C30 15.6861 31.4003 14.2858 33.1277 14.2858H62.8723C64.5997 14.2858 66 15.6861 66 17.4134V31.4286H30V17.4134Z"/>
</mask>
<path d="M30 17.4134C30 15.6861 31.4003 14.2858 33.1277 14.2858H62.8723C64.5997 14.2858 66 15.6861 66 17.4134V31.4286H30V17.4134Z" stroke="white" stroke-width="12" mask="url(#path-3-inside-1_2153_167)"/>
<path d="M56.6275 52.3136H78.8761V70.9805C78.8761 72.7079 77.4758 74.1082 75.7484 74.1082H20.2524C18.5251 74.1082 17.1248 72.7079 17.1248 70.9805V52.3136H36.4658" stroke="white" stroke-width="6"/>
<path fill-rule="evenodd" clip-rule="evenodd" d="M53.1894 49.0232C53.1894 53.0598 49.9171 56.3321 45.8805 56.3321C41.8438 56.3321 38.5715 53.0598 38.5715 49.0232C38.5715 44.9865 41.8438 41.7142 45.8805 41.7142C49.9171 41.7142 53.1894 44.9865 53.1894 49.0232ZM53.4679 59.9588C51.3155 61.455 48.7004 62.3321 45.8805 62.3321C38.5301 62.3321 32.5715 56.3735 32.5715 49.0232C32.5715 41.6728 38.5301 35.7142 45.8805 35.7142C53.2308 35.7142 59.1894 41.6728 59.1894 49.0232C59.1894 51.3784 58.5776 53.5907 57.5043 55.5099L65.1665 63.1721C66.338 64.3437 66.338 66.2432 65.1665 67.4147C63.9949 68.5863 62.0954 68.5863 60.9238 67.4147L53.4679 59.9588Z" fill="#1B1B1D"/>
</svg>
