<svg width="300" height="64" viewBox="0 0 300 64" fill="none" xmlns="http://www.w3.org/2000/svg">
<path d="M41.4775 35.2612H52.7872C55.6662 35.2612 58 32.9274 58 30.0485V19.4532C58 18.0137 56.8331 16.8468 55.3936 16.8468H4.60638C3.16692 16.8468 2 18.0137 2 19.4532V30.0485C2 32.9274 4.33384 35.2612 7.21277 35.2612H20.2883" stroke="white" stroke-width="2.60638"/>
<path d="M16.6724 8.60638C16.6724 7.88665 17.2559 7.30319 17.9756 7.30319H42.2764C42.9961 7.30319 43.5796 7.88665 43.5796 8.60638V16.5527H16.6724V8.60638Z" stroke="white" stroke-width="2.60638"/>
<path d="M37.1898 35.2613H55.7303V50.8171C55.7303 52.2565 54.5634 53.4235 53.1239 53.4235H6.87723C5.43776 53.4235 4.27084 52.2565 4.27084 50.8171V35.2613H20.3883" stroke="white" stroke-width="2.60638"/>
<path fill-rule="evenodd" clip-rule="evenodd" d="M34.8095 33.0991C34.8095 36.7874 31.8196 39.7774 28.1313 39.7774C24.443 39.7774 21.453 36.7874 21.453 33.0991C21.453 29.4109 24.443 26.4209 28.1313 26.4209C31.8196 26.4209 34.8095 29.4109 34.8095 33.0991ZM34.2002 40.6386C32.5402 41.9765 30.4293 42.7774 28.1313 42.7774C22.7861 42.7774 18.453 38.4443 18.453 33.0991C18.453 27.754 22.7861 23.4209 28.1313 23.4209C33.4764 23.4209 37.8095 27.754 37.8095 33.0991C37.8095 35.0628 37.2247 36.8898 36.2198 38.4156L41.6743 43.8701C42.2601 44.4559 42.2601 45.4056 41.6743 45.9914C41.0885 46.5772 40.1388 46.5772 39.553 45.9914L34.2002 40.6386Z" fill="#40A7E3"/>
<path d="M75.98 45.9999C75.62 45.9999 75.3 45.8899 75.02 45.6699C74.74 45.4499 74.54 45.1499 74.42 44.7699L68.39 24.7299C68.19 24.0699 68.2 23.5499 68.42 23.1699C68.66 22.7699 69.04 22.5699 69.56 22.5699C69.9 22.5699 70.21 22.6699 70.49 22.8699C70.77 23.0499 70.97 23.3399 71.09 23.7399L76.34 42.0399H75.68L80.54 23.9199C80.62 23.6199 80.8 23.3699 81.08 23.1699C81.36 22.9699 81.68 22.8699 82.04 22.8699C82.36 22.8699 82.66 22.9599 82.94 23.1399C83.24 23.2999 83.43 23.5499 83.51 23.8899L88.4 42.0399H87.8L93.08 23.5899C93.28 22.9099 93.79 22.5699 94.61 22.5699C95.17 22.5699 95.53 22.7899 95.69 23.2299C95.85 23.6499 95.85 24.1499 95.69 24.7299L89.66 44.7399C89.52 45.1199 89.31 45.4299 89.03 45.6699C88.77 45.8899 88.46 45.9999 88.1 45.9999C87.72 45.9999 87.39 45.8799 87.11 45.6399C86.85 45.3999 86.66 45.1099 86.54 44.7699L81.71 26.1099H82.43L77.54 44.7399C77.4 45.1199 77.19 45.4299 76.91 45.6699C76.65 45.8899 76.34 45.9999 75.98 45.9999Z" fill="white"/>
<path d="M103.254 46.1199C101.594 46.1199 100.114 45.7699 98.8137 45.0699C97.5337 44.3499 96.5237 43.3699 95.7837 42.1299C95.0637 40.8699 94.7037 39.4299 94.7037 37.8099C94.7037 36.1699 95.0437 34.7299 95.7237 33.4899C96.4237 32.2299 97.3837 31.2499 98.6037 30.5499C99.8237 29.8299 101.224 29.4699 102.804 29.4699C104.364 29.4699 105.704 29.8199 106.824 30.5199C107.944 31.1999 108.794 32.1499 109.374 33.3699C109.974 34.5699 110.274 35.9599 110.274 37.5399C110.274 37.9199 110.144 38.2399 109.884 38.4999C109.624 38.7399 109.294 38.8599 108.894 38.8599H96.8037V36.4599H108.804L107.574 37.2999C107.554 36.2999 107.354 35.4099 106.974 34.6299C106.594 33.8299 106.054 33.1999 105.354 32.7399C104.654 32.2799 103.804 32.0499 102.804 32.0499C101.664 32.0499 100.684 32.2999 99.8637 32.7999C99.0637 33.2999 98.4537 33.9899 98.0337 34.8699C97.6137 35.7299 97.4037 36.7099 97.4037 37.8099C97.4037 38.9099 97.6537 39.8899 98.1537 40.7499C98.6537 41.6099 99.3437 42.2899 100.224 42.7899C101.104 43.2899 102.114 43.5399 103.254 43.5399C103.874 43.5399 104.504 43.4299 105.144 43.2099C105.804 42.9699 106.334 42.6999 106.734 42.3999C107.034 42.1799 107.354 42.0699 107.694 42.0699C108.054 42.0499 108.364 42.1499 108.624 42.3699C108.964 42.6699 109.144 42.9999 109.164 43.3599C109.184 43.7199 109.024 44.0299 108.684 44.2899C108.004 44.8299 107.154 45.2699 106.134 45.6099C105.134 45.9499 104.174 46.1199 103.254 46.1199Z" fill="white"/>
<path d="M122.427 46.1199C120.867 46.1199 119.467 45.7599 118.227 45.0399C116.987 44.2999 116.007 43.2999 115.287 42.0399C114.567 40.7799 114.197 39.3599 114.177 37.7799V24.0999C114.177 23.6399 114.317 23.2699 114.597 22.9899C114.897 22.7099 115.267 22.5699 115.707 22.5699C116.167 22.5699 116.537 22.7099 116.817 22.9899C117.097 23.2699 117.237 23.6399 117.237 24.0999V32.1999C117.937 31.3599 118.777 30.6999 119.757 30.2199C120.757 29.7199 121.847 29.4699 123.027 29.4699C124.487 29.4699 125.797 29.8399 126.957 30.5799C128.117 31.2999 129.027 32.2899 129.687 33.5499C130.367 34.7899 130.707 36.1999 130.707 37.7799C130.707 39.3599 130.337 40.7799 129.597 42.0399C128.877 43.2999 127.897 44.2999 126.657 45.0399C125.417 45.7599 124.007 46.1199 122.427 46.1199ZM122.427 43.4199C123.447 43.4199 124.357 43.1799 125.157 42.6999C125.957 42.1999 126.587 41.5199 127.047 40.6599C127.527 39.7999 127.767 38.8399 127.767 37.7799C127.767 36.6999 127.527 35.7399 127.047 34.8999C126.587 34.0599 125.957 33.3999 125.157 32.9199C124.357 32.4199 123.447 32.1699 122.427 32.1699C121.427 32.1699 120.517 32.4199 119.697 32.9199C118.897 33.3999 118.267 34.0599 117.807 34.8999C117.347 35.7399 117.117 36.6999 117.117 37.7799C117.117 38.8399 117.347 39.7999 117.807 40.6599C118.267 41.5199 118.897 42.1999 119.697 42.6999C120.517 43.1799 121.427 43.4199 122.427 43.4199Z" fill="white"/>
<path d="M167.868 46.2999C166.468 46.2999 165.218 45.9999 164.118 45.3999C163.038 44.7799 162.188 43.9299 161.568 42.8499C160.968 41.7499 160.668 40.4999 160.668 39.0999C160.668 38.6399 160.818 38.2699 161.118 37.9899C161.418 37.6899 161.788 37.5399 162.228 37.5399C162.688 37.5399 163.058 37.6899 163.338 37.9899C163.638 38.2699 163.788 38.6399 163.788 39.0999C163.788 39.9599 163.958 40.7199 164.298 41.3799C164.658 42.0399 165.138 42.5599 165.738 42.9399C166.358 43.2999 167.068 43.4799 167.868 43.4799C168.668 43.4799 169.378 43.2999 169.998 42.9399C170.618 42.5599 171.098 42.0399 171.438 41.3799C171.798 40.7199 171.978 39.9599 171.978 39.0999V24.1299C171.978 23.6699 172.118 23.2999 172.398 23.0199C172.698 22.7199 173.068 22.5699 173.508 22.5699C173.968 22.5699 174.348 22.7199 174.648 23.0199C174.948 23.2999 175.098 23.6699 175.098 24.1299V39.0999C175.098 40.4999 174.788 41.7499 174.168 42.8499C173.548 43.9299 172.698 44.7799 171.618 45.3999C170.538 45.9999 169.288 46.2999 167.868 46.2999Z" fill="white"/>
<path d="M188.238 46.1199C186.618 46.1199 185.188 45.7699 183.948 45.0699C182.708 44.3499 181.728 43.3699 181.008 42.1299C180.308 40.8699 179.958 39.4299 179.958 37.8099C179.958 36.1699 180.308 34.7299 181.008 33.4899C181.728 32.2299 182.708 31.2499 183.948 30.5499C185.188 29.8299 186.618 29.4699 188.238 29.4699C189.838 29.4699 191.258 29.8299 192.498 30.5499C193.738 31.2499 194.708 32.2299 195.408 33.4899C196.128 34.7299 196.488 36.1699 196.488 37.8099C196.488 39.4299 196.138 40.8699 195.438 42.1299C194.738 43.3699 193.768 44.3499 192.528 45.0699C191.288 45.7699 189.858 46.1199 188.238 46.1199ZM188.238 43.4199C189.278 43.4199 190.198 43.1799 190.998 42.6999C191.798 42.2199 192.418 41.5599 192.858 40.7199C193.318 39.8799 193.548 38.9099 193.548 37.8099C193.548 36.7099 193.318 35.7399 192.858 34.8999C192.418 34.0399 191.798 33.3699 190.998 32.8899C190.198 32.4099 189.278 32.1699 188.238 32.1699C187.198 32.1699 186.278 32.4099 185.478 32.8899C184.678 33.3699 184.048 34.0399 183.588 34.8999C183.128 35.7399 182.898 36.7099 182.898 37.8099C182.898 38.9099 183.128 39.8799 183.588 40.7199C184.048 41.5599 184.678 42.2199 185.478 42.6999C186.278 43.1799 187.198 43.4199 188.238 43.4199Z" fill="white"/>
<path d="M209.292 46.1199C207.732 46.1199 206.332 45.7599 205.092 45.0399C203.852 44.2999 202.872 43.2999 202.152 42.0399C201.432 40.7799 201.062 39.3599 201.042 37.7799V24.0999C201.042 23.6399 201.182 23.2699 201.462 22.9899C201.762 22.7099 202.132 22.5699 202.572 22.5699C203.032 22.5699 203.402 22.7099 203.682 22.9899C203.962 23.2699 204.102 23.6399 204.102 24.0999V32.1999C204.802 31.3599 205.642 30.6999 206.622 30.2199C207.622 29.7199 208.712 29.4699 209.892 29.4699C211.352 29.4699 212.662 29.8399 213.822 30.5799C214.982 31.2999 215.892 32.2899 216.552 33.5499C217.232 34.7899 217.572 36.1999 217.572 37.7799C217.572 39.3599 217.202 40.7799 216.462 42.0399C215.742 43.2999 214.762 44.2999 213.522 45.0399C212.282 45.7599 210.872 46.1199 209.292 46.1199ZM209.292 43.4199C210.312 43.4199 211.222 43.1799 212.022 42.6999C212.822 42.1999 213.452 41.5199 213.912 40.6599C214.392 39.7999 214.632 38.8399 214.632 37.7799C214.632 36.6999 214.392 35.7399 213.912 34.8999C213.452 34.0599 212.822 33.3999 212.022 32.9199C211.222 32.4199 210.312 32.1699 209.292 32.1699C208.292 32.1699 207.382 32.4199 206.562 32.9199C205.762 33.3999 205.132 34.0599 204.672 34.8999C204.212 35.7399 203.982 36.6999 203.982 37.7799C203.982 38.8399 204.212 39.7999 204.672 40.6599C205.132 41.5199 205.762 42.1999 206.562 42.6999C207.382 43.1799 208.292 43.4199 209.292 43.4199Z" fill="white"/>
<path d="M228.106 46.1199C226.706 46.1199 225.406 45.9099 224.206 45.4899C223.026 45.0499 222.106 44.4999 221.446 43.8399C221.146 43.5199 221.016 43.1599 221.056 42.7599C221.116 42.3399 221.316 41.9999 221.656 41.7399C222.056 41.4199 222.446 41.2899 222.826 41.3499C223.226 41.3899 223.566 41.5599 223.846 41.8599C224.186 42.2399 224.726 42.5999 225.466 42.9399C226.226 43.2599 227.066 43.4199 227.986 43.4199C229.146 43.4199 230.026 43.2299 230.626 42.8499C231.246 42.4699 231.566 41.9799 231.586 41.3799C231.606 40.7799 231.316 40.2599 230.716 39.8199C230.136 39.3799 229.066 39.0199 227.506 38.7399C225.486 38.3399 224.016 37.7399 223.096 36.9399C222.196 36.1399 221.746 35.1599 221.746 33.9999C221.746 32.9799 222.046 32.1399 222.646 31.4799C223.246 30.7999 224.016 30.2999 224.956 29.9799C225.896 29.6399 226.876 29.4699 227.896 29.4699C229.216 29.4699 230.386 29.6799 231.406 30.0999C232.426 30.5199 233.236 31.0999 233.836 31.8399C234.116 32.1599 234.246 32.4999 234.226 32.8599C234.206 33.1999 234.036 33.4899 233.716 33.7299C233.396 33.9499 233.016 34.0199 232.576 33.9399C232.136 33.8599 231.766 33.6799 231.466 33.3999C230.966 32.9199 230.426 32.5899 229.846 32.4099C229.266 32.2299 228.596 32.1399 227.836 32.1399C226.956 32.1399 226.206 32.2899 225.586 32.5899C224.986 32.8899 224.686 33.3299 224.686 33.9099C224.686 34.2699 224.776 34.5999 224.956 34.8999C225.156 35.1799 225.536 35.4399 226.096 35.6799C226.656 35.8999 227.476 36.1199 228.556 36.3399C230.056 36.6399 231.236 37.0199 232.096 37.4799C232.976 37.9399 233.606 38.4799 233.986 39.0999C234.366 39.6999 234.556 40.3999 234.556 41.1999C234.556 42.1199 234.306 42.9499 233.806 43.6899C233.326 44.4299 232.606 45.0199 231.646 45.4599C230.706 45.8999 229.526 46.1199 228.106 46.1199Z" fill="white"/>
<path d="M249.074 45.9999C248.634 45.9999 248.264 45.8499 247.964 45.5499C247.664 45.2499 247.514 44.8799 247.514 44.4399V24.1299C247.514 23.6699 247.664 23.2999 247.964 23.0199C248.264 22.7199 248.634 22.5699 249.074 22.5699H256.244C257.604 22.5699 258.794 22.8399 259.814 23.3799C260.854 23.8999 261.664 24.6299 262.244 25.5699C262.844 26.5099 263.144 27.5899 263.144 28.8099C263.144 29.7899 262.874 30.6799 262.334 31.4799C261.814 32.2599 261.094 32.8799 260.174 33.3399C261.494 33.6599 262.554 34.2899 263.354 35.2299C264.154 36.1699 264.554 37.3999 264.554 38.9199C264.554 40.2999 264.224 41.5199 263.564 42.5799C262.924 43.6399 262.024 44.4799 260.864 45.0999C259.704 45.6999 258.374 45.9999 256.874 45.9999H249.074ZM250.634 43.1199H256.874C257.794 43.1199 258.604 42.9599 259.304 42.6399C260.004 42.3199 260.554 41.8499 260.954 41.2299C261.354 40.6099 261.554 39.8399 261.554 38.9199C261.554 38.0599 261.354 37.3499 260.954 36.7899C260.554 36.2299 260.004 35.8099 259.304 35.5299C258.604 35.2299 257.794 35.0799 256.874 35.0799H250.634V43.1199ZM250.634 32.1999H256.244C257.384 32.1999 258.314 31.9199 259.034 31.3599C259.774 30.7999 260.144 29.9499 260.144 28.8099C260.144 27.6699 259.774 26.8299 259.034 26.2899C258.314 25.7299 257.384 25.4499 256.244 25.4499H250.634V32.1999Z" fill="white"/>
<path d="M276.333 46.1199C274.713 46.1199 273.283 45.7699 272.043 45.0699C270.803 44.3499 269.823 43.3699 269.103 42.1299C268.403 40.8699 268.053 39.4299 268.053 37.8099C268.053 36.1699 268.403 34.7299 269.103 33.4899C269.823 32.2299 270.803 31.2499 272.043 30.5499C273.283 29.8299 274.713 29.4699 276.333 29.4699C277.933 29.4699 279.353 29.8299 280.593 30.5499C281.833 31.2499 282.803 32.2299 283.503 33.4899C284.223 34.7299 284.583 36.1699 284.583 37.8099C284.583 39.4299 284.233 40.8699 283.533 42.1299C282.833 43.3699 281.863 44.3499 280.623 45.0699C279.383 45.7699 277.953 46.1199 276.333 46.1199ZM276.333 43.4199C277.373 43.4199 278.293 43.1799 279.093 42.6999C279.893 42.2199 280.513 41.5599 280.953 40.7199C281.413 39.8799 281.643 38.9099 281.643 37.8099C281.643 36.7099 281.413 35.7399 280.953 34.8999C280.513 34.0399 279.893 33.3699 279.093 32.8899C278.293 32.4099 277.373 32.1699 276.333 32.1699C275.293 32.1699 274.373 32.4099 273.573 32.8899C272.773 33.3699 272.143 34.0399 271.683 34.8999C271.223 35.7399 270.993 36.7099 270.993 37.8099C270.993 38.9099 271.223 39.8799 271.683 40.7199C272.143 41.5599 272.773 42.2199 273.573 42.6999C274.373 43.1799 275.293 43.4199 276.333 43.4199Z" fill="white"/>
<path d="M295.107 45.9999C294.107 45.9999 293.207 45.7499 292.407 45.2499C291.607 44.7299 290.977 44.0299 290.517 43.1499C290.057 42.2699 289.827 41.2799 289.827 40.1799V25.8699C289.827 25.4299 289.967 25.0699 290.247 24.7899C290.527 24.5099 290.887 24.3699 291.327 24.3699C291.767 24.3699 292.127 24.5099 292.407 24.7899C292.687 25.0699 292.827 25.4299 292.827 25.8699V40.1799C292.827 40.9799 293.047 41.6499 293.487 42.1899C293.927 42.7299 294.467 42.9999 295.107 42.9999H296.127C296.487 42.9999 296.787 43.1399 297.027 43.4199C297.287 43.6999 297.417 44.0599 297.417 44.4999C297.417 44.9399 297.247 45.2999 296.907 45.5799C296.587 45.8599 296.167 45.9999 295.647 45.9999H295.107ZM288.447 32.7699C288.027 32.7699 287.687 32.6499 287.427 32.4099C287.167 32.1699 287.037 31.8699 287.037 31.5099C287.037 31.1099 287.167 30.7899 287.427 30.5499C287.687 30.3099 288.027 30.1899 288.447 30.1899H295.377C295.797 30.1899 296.137 30.3099 296.397 30.5499C296.657 30.7899 296.787 31.1099 296.787 31.5099C296.787 31.8699 296.657 32.1699 296.397 32.4099C296.137 32.6499 295.797 32.7699 295.377 32.7699H288.447Z" fill="white"/>
<path d="M142.36 46C140.86 46 139.53 45.69 138.37 45.07C137.21 44.43 136.3 43.57 135.64 42.49C134.98 41.39 134.65 40.16 134.65 38.8C134.65 38.34 134.78 37.97 135.04 37.69C135.32 37.39 135.65 37.24 136.03 37.24C136.43 37.24 136.76 37.39 137.02 37.69C137.28 37.97 137.41 38.34 137.41 38.8C137.41 39.62 137.62 40.38 138.04 41.08C138.46 41.76 139.03 42.31 139.75 42.73C140.47 43.13 141.28 43.33 142.18 43.33C143.5 43.33 144.56 42.97 145.36 42.25C146.18 41.51 146.59 40.48 146.59 39.16C146.59 38.32 146.41 37.57 146.05 36.91C145.69 36.23 145.2 35.69 144.58 35.29C143.96 34.89 143.26 34.69 142.48 34.69C142.04 34.69 141.67 34.54 141.37 34.24C141.09 33.94 140.95 33.57 140.95 33.13C140.95 32.69 141.09 32.33 141.37 32.05C141.67 31.75 142.04 31.6 142.48 31.6C143.04 31.6 143.58 31.46 144.1 31.18C144.62 30.88 145.05 30.49 145.39 30.01C145.73 29.51 145.9 28.95 145.9 28.33C145.9 27.45 145.58 26.71 144.94 26.11C144.3 25.51 143.48 25.21 142.48 25.21C141.72 25.21 141.02 25.36 140.38 25.66C139.76 25.96 139.26 26.36 138.88 26.86C138.52 27.36 138.34 27.92 138.34 28.54C138.34 29 138.21 29.39 137.95 29.71C137.69 30.01 137.36 30.16 136.96 30.16C136.58 30.16 136.25 30.02 135.97 29.74C135.71 29.44 135.58 29.07 135.58 28.63C135.58 27.47 135.88 26.43 136.48 25.51C137.08 24.59 137.9 23.87 138.94 23.35C139.98 22.81 141.14 22.54 142.42 22.54C143.6 22.54 144.66 22.8 145.6 23.32C146.56 23.82 147.31 24.51 147.85 25.39C148.41 26.25 148.69 27.23 148.69 28.33C148.69 29.11 148.51 29.8 148.15 30.4C147.81 31 147.37 31.52 146.83 31.96C146.29 32.38 145.72 32.73 145.12 33.01C146.18 33.37 147.04 33.86 147.7 34.48C148.36 35.08 148.84 35.78 149.14 36.58C149.46 37.38 149.62 38.25 149.62 39.19C149.62 40.49 149.29 41.66 148.63 42.7C147.97 43.72 147.09 44.53 145.99 45.13C144.89 45.71 143.68 46 142.36 46Z" fill="#40A7E3"/>
</svg>
