<svg width="300" height="64" viewBox="0 0 300 64" fill="none" xmlns="http://www.w3.org/2000/svg">
<path d="M41.4776 37.2613H52.7699C55.6585 37.2613 58.0001 34.9197 58.0001 32.0311V21.462C58.0001 20.0177 56.8293 18.8469 55.385 18.8469H4.61519C3.17091 18.8469 2.00009 20.0177 2.00009 21.462V32.0311C2.00009 34.9197 4.34173 37.2613 7.23029 37.2613H20.2884" stroke="white" stroke-width="2.6151"/>
<path d="M16.6766 10.6151C16.6766 9.89296 17.262 9.30755 17.9841 9.30755H42.2674C42.9896 9.30755 43.575 9.89296 43.575 10.6151V18.5483H16.6766V10.6151Z" stroke="white" stroke-width="2.6151"/>
<path d="M37.1895 37.2613H55.7301V52.8084C55.7301 54.2526 54.5592 55.4235 53.115 55.4235H6.8857C5.44142 55.4235 4.2706 54.2526 4.2706 52.8084V37.2613H20.3881" stroke="white" stroke-width="2.6151"/>
<path fill-rule="evenodd" clip-rule="evenodd" d="M34.7996 35.0991C34.7996 38.7819 31.8142 41.7674 28.1314 41.7674C24.4487 41.7674 21.4632 38.7819 21.4632 35.0991C21.4632 31.4164 24.4487 28.4309 28.1314 28.4309C31.8142 28.4309 34.7996 31.4164 34.7996 35.0991ZM34.1965 42.6417C32.5371 43.9777 30.4277 44.7774 28.1314 44.7774C22.7863 44.7774 18.4532 40.4443 18.4532 35.0991C18.4532 29.754 22.7863 25.4209 28.1314 25.4209C33.4766 25.4209 37.8097 29.754 37.8097 35.0991C37.8097 37.0609 37.226 38.8863 36.2229 40.4112L41.6783 45.8666C42.266 46.4543 42.266 47.4072 41.6783 47.995C41.0905 48.5827 40.1376 48.5827 39.5499 47.995L34.1965 42.6417Z" fill="#1B1B1D"/>
<path d="M76.2339 48.0568C75.8727 48.0568 75.5516 47.9465 75.2707 47.7257C74.9897 47.505 74.7891 47.204 74.6687 46.8227L68.6185 26.7157C68.4178 26.0535 68.4279 25.5317 68.6486 25.1505C68.8894 24.7491 69.2707 24.5485 69.7924 24.5485C70.1335 24.5485 70.4446 24.6488 70.7255 24.8495C71.0065 25.0301 71.2071 25.321 71.3275 25.7224L76.5951 44.0836H75.9329L80.8091 25.903C80.8894 25.602 81.07 25.3511 81.3509 25.1505C81.6319 24.9498 81.9529 24.8495 82.3141 24.8495C82.6352 24.8495 82.9362 24.9398 83.2172 25.1204C83.5182 25.2809 83.7088 25.5317 83.7891 25.8729L88.6954 44.0836H88.0934L93.3911 25.5719C93.5917 24.8896 94.1034 24.5485 94.9262 24.5485C95.4881 24.5485 95.8493 24.7692 96.0098 25.2107C96.1703 25.6321 96.1703 26.1337 96.0098 26.7157L89.9596 46.7926C89.8192 47.1739 89.6085 47.4849 89.3275 47.7257C89.0667 47.9465 88.7556 48.0568 88.3944 48.0568C88.0131 48.0568 87.682 47.9364 87.4011 47.6956C87.1402 47.4548 86.9496 47.1638 86.8292 46.8227L81.983 28.1003H82.7055L77.7991 46.7926C77.6586 47.1739 77.4479 47.4849 77.167 47.7257C76.9061 47.9465 76.5951 48.0568 76.2339 48.0568Z" fill="white"/>
<path d="M103.599 48.1772C101.933 48.1772 100.448 47.8261 99.144 47.1237C97.8597 46.4013 96.8463 45.418 96.1039 44.1739C95.3815 42.9097 95.0203 41.4649 95.0203 39.8394C95.0203 38.1939 95.3614 36.7491 96.0437 35.505C96.746 34.2408 97.7092 33.2575 98.9333 32.5552C100.157 31.8327 101.562 31.4715 103.147 31.4715C104.713 31.4715 106.057 31.8227 107.181 32.5251C108.305 33.2073 109.157 34.1605 109.739 35.3846C110.341 36.5886 110.642 37.9832 110.642 39.5685C110.642 39.9498 110.512 40.2709 110.251 40.5317C109.99 40.7725 109.659 40.8929 109.258 40.8929H97.1273V38.4849H109.167L107.933 39.3277C107.913 38.3244 107.713 37.4314 107.331 36.6488C106.95 35.8461 106.408 35.214 105.706 34.7525C105.004 34.2909 104.151 34.0602 103.147 34.0602C102.004 34.0602 101.02 34.311 100.198 34.8127C99.3948 35.3143 98.7828 36.0067 98.3614 36.8896C97.94 37.7525 97.7293 38.7358 97.7293 39.8394C97.7293 40.9431 97.9801 41.9264 98.4818 42.7893C98.9835 43.6521 99.6758 44.3344 100.559 44.8361C101.442 45.3378 102.455 45.5886 103.599 45.5886C104.221 45.5886 104.853 45.4782 105.495 45.2575C106.157 45.0167 106.689 44.7458 107.09 44.4448C107.391 44.2241 107.713 44.1137 108.054 44.1137C108.415 44.0936 108.726 44.194 108.987 44.4147C109.328 44.7157 109.509 45.0468 109.529 45.408C109.549 45.7692 109.388 46.0802 109.047 46.3411C108.365 46.8829 107.512 47.3244 106.488 47.6655C105.485 48.0067 104.522 48.1772 103.599 48.1772Z" fill="white"/>
<path d="M122.836 48.1772C121.271 48.1772 119.866 47.816 118.622 47.0936C117.378 46.3511 116.394 45.3478 115.672 44.0836C114.949 42.8194 114.578 41.3946 114.558 39.8093V26.0836C114.558 25.622 114.699 25.2508 114.98 24.9699C115.281 24.6889 115.652 24.5485 116.093 24.5485C116.555 24.5485 116.926 24.6889 117.207 24.9699C117.488 25.2508 117.628 25.622 117.628 26.0836V34.2107C118.331 33.3679 119.174 32.7057 120.157 32.224C121.16 31.7224 122.254 31.4715 123.438 31.4715C124.903 31.4715 126.217 31.8428 127.381 32.5853C128.545 33.3077 129.458 34.301 130.12 35.5652C130.802 36.8093 131.143 38.224 131.143 39.8093C131.143 41.3946 130.772 42.8194 130.03 44.0836C129.307 45.3478 128.324 46.3511 127.08 47.0936C125.836 47.816 124.421 48.1772 122.836 48.1772ZM122.836 45.4682C123.859 45.4682 124.772 45.2274 125.575 44.7458C126.378 44.2441 127.01 43.5618 127.471 42.699C127.953 41.8361 128.194 40.8729 128.194 39.8093C128.194 38.7257 127.953 37.7625 127.471 36.9197C127.01 36.0769 126.378 35.4147 125.575 34.9331C124.772 34.4314 123.859 34.1806 122.836 34.1806C121.832 34.1806 120.919 34.4314 120.097 34.9331C119.294 35.4147 118.662 36.0769 118.2 36.9197C117.739 37.7625 117.508 38.7257 117.508 39.8093C117.508 40.8729 117.739 41.8361 118.2 42.699C118.662 43.5618 119.294 44.2441 120.097 44.7458C120.919 45.2274 121.832 45.4682 122.836 45.4682Z" fill="white"/>
<path d="M168.43 48.3578C167.025 48.3578 165.771 48.0568 164.667 47.4548C163.583 46.8327 162.731 45.9799 162.108 44.8963C161.506 43.7926 161.205 42.5384 161.205 41.1337C161.205 40.6722 161.356 40.301 161.657 40.02C161.958 39.719 162.329 39.5685 162.771 39.5685C163.232 39.5685 163.603 39.719 163.884 40.02C164.185 40.301 164.336 40.6722 164.336 41.1337C164.336 41.9966 164.506 42.7592 164.848 43.4214C165.209 44.0836 165.69 44.6053 166.292 44.9866C166.915 45.3478 167.627 45.5284 168.43 45.5284C169.232 45.5284 169.945 45.3478 170.567 44.9866C171.189 44.6053 171.67 44.0836 172.012 43.4214C172.373 42.7592 172.553 41.9966 172.553 41.1337V26.1137C172.553 25.6521 172.694 25.2809 172.975 25C173.276 24.699 173.647 24.5485 174.088 24.5485C174.55 24.5485 174.931 24.699 175.232 25C175.533 25.2809 175.684 25.6521 175.684 26.1137V41.1337C175.684 42.5384 175.373 43.7926 174.751 44.8963C174.129 45.9799 173.276 46.8327 172.192 47.4548C171.108 48.0568 169.854 48.3578 168.43 48.3578Z" fill="white"/>
<path d="M188.867 48.1772C187.242 48.1772 185.807 47.8261 184.563 47.1237C183.318 46.4013 182.335 45.418 181.613 44.1739C180.91 42.9097 180.559 41.4649 180.559 39.8394C180.559 38.1939 180.91 36.7491 181.613 35.505C182.335 34.2408 183.318 33.2575 184.563 32.5552C185.807 31.8327 187.242 31.4715 188.867 31.4715C190.472 31.4715 191.897 31.8327 193.141 32.5552C194.385 33.2575 195.359 34.2408 196.061 35.505C196.783 36.7491 197.145 38.1939 197.145 39.8394C197.145 41.4649 196.793 42.9097 196.091 44.1739C195.389 45.418 194.415 46.4013 193.171 47.1237C191.927 47.8261 190.492 48.1772 188.867 48.1772ZM188.867 45.4682C189.91 45.4682 190.834 45.2274 191.636 44.7458C192.439 44.2642 193.061 43.602 193.502 42.7592C193.964 41.9164 194.195 40.9431 194.195 39.8394C194.195 38.7358 193.964 37.7625 193.502 36.9197C193.061 36.0568 192.439 35.3846 191.636 34.903C190.834 34.4214 189.91 34.1806 188.867 34.1806C187.824 34.1806 186.9 34.4214 186.098 34.903C185.295 35.3846 184.663 36.0568 184.201 36.9197C183.74 37.7625 183.509 38.7358 183.509 39.8394C183.509 40.9431 183.74 41.9164 184.201 42.7592C184.663 43.602 185.295 44.2642 186.098 44.7458C186.9 45.2274 187.824 45.4682 188.867 45.4682Z" fill="white"/>
<path d="M209.992 48.1772C208.426 48.1772 207.022 47.816 205.778 47.0936C204.533 46.3511 203.55 45.3478 202.828 44.0836C202.105 42.8194 201.734 41.3946 201.714 39.8093V26.0836C201.714 25.622 201.854 25.2508 202.135 24.9699C202.436 24.6889 202.808 24.5485 203.249 24.5485C203.711 24.5485 204.082 24.6889 204.363 24.9699C204.644 25.2508 204.784 25.622 204.784 26.0836V34.2107C205.487 33.3679 206.329 32.7057 207.313 32.224C208.316 31.7224 209.41 31.4715 210.594 31.4715C212.058 31.4715 213.373 31.8428 214.537 32.5853C215.701 33.3077 216.614 34.301 217.276 35.5652C217.958 36.8093 218.299 38.224 218.299 39.8093C218.299 41.3946 217.928 42.8194 217.186 44.0836C216.463 45.3478 215.48 46.3511 214.236 47.0936C212.992 47.816 211.577 48.1772 209.992 48.1772ZM209.992 45.4682C211.015 45.4682 211.928 45.2274 212.731 44.7458C213.533 44.2441 214.165 43.5618 214.627 42.699C215.109 41.8361 215.349 40.8729 215.349 39.8093C215.349 38.7257 215.109 37.7625 214.627 36.9197C214.165 36.0769 213.533 35.4147 212.731 34.9331C211.928 34.4314 211.015 34.1806 209.992 34.1806C208.988 34.1806 208.075 34.4314 207.252 34.9331C206.45 35.4147 205.818 36.0769 205.356 36.9197C204.895 37.7625 204.664 38.7257 204.664 39.8093C204.664 40.8729 204.895 41.8361 205.356 42.699C205.818 43.5618 206.45 44.2441 207.252 44.7458C208.075 45.2274 208.988 45.4682 209.992 45.4682Z" fill="white"/>
<path d="M228.868 48.1772C227.464 48.1772 226.159 47.9665 224.955 47.5451C223.771 47.1036 222.848 46.5518 222.186 45.8896C221.885 45.5685 221.755 45.2073 221.795 44.806C221.855 44.3846 222.056 44.0434 222.397 43.7826C222.798 43.4615 223.189 43.3311 223.571 43.3913C223.972 43.4314 224.313 43.602 224.594 43.903C224.935 44.2843 225.477 44.6455 226.219 44.9866C226.982 45.3077 227.825 45.4682 228.748 45.4682C229.912 45.4682 230.795 45.2776 231.397 44.8963C232.019 44.515 232.34 44.0234 232.36 43.4214C232.38 42.8194 232.089 42.2976 231.487 41.8562C230.905 41.4147 229.831 41.0535 228.266 40.7725C226.239 40.3712 224.765 39.7692 223.841 38.9665C222.938 38.1638 222.487 37.1806 222.487 36.0167C222.487 34.9933 222.788 34.1505 223.39 33.4883C223.992 32.806 224.765 32.3043 225.708 31.9832C226.651 31.6421 227.634 31.4715 228.658 31.4715C229.982 31.4715 231.156 31.6822 232.179 32.1036C233.203 32.5251 234.015 33.107 234.617 33.8495C234.898 34.1705 235.029 34.5117 235.009 34.8729C234.989 35.214 234.818 35.505 234.497 35.7458C234.176 35.9665 233.795 36.0368 233.353 35.9565C232.912 35.8762 232.54 35.6956 232.239 35.4147C231.738 34.9331 231.196 34.602 230.614 34.4214C230.032 34.2408 229.36 34.1505 228.597 34.1505C227.714 34.1505 226.962 34.301 226.34 34.602C225.738 34.903 225.437 35.3444 225.437 35.9264C225.437 36.2876 225.527 36.6187 225.708 36.9197C225.908 37.2006 226.29 37.4615 226.852 37.7023C227.413 37.923 228.236 38.1438 229.32 38.3645C230.825 38.6655 232.009 39.0468 232.872 39.5083C233.755 39.9699 234.387 40.5117 234.768 41.1337C235.149 41.7358 235.34 42.4381 235.34 43.2408C235.34 44.1638 235.089 44.9966 234.587 45.7391C234.106 46.4816 233.383 47.0735 232.42 47.515C231.477 47.9565 230.293 48.1772 228.868 48.1772Z" fill="white"/>
<path d="M249.906 48.0568C249.465 48.0568 249.094 47.9063 248.793 47.6053C248.492 47.3043 248.341 46.9331 248.341 46.4916V26.1137C248.341 25.6521 248.492 25.2809 248.793 25C249.094 24.699 249.465 24.5485 249.906 24.5485H257.1C258.465 24.5485 259.659 24.8194 260.682 25.3612C261.726 25.8829 262.539 26.6154 263.121 27.5585C263.723 28.5016 264.024 29.5853 264.024 30.8093C264.024 31.7926 263.753 32.6856 263.211 33.4883C262.689 34.2709 261.967 34.8929 261.044 35.3545C262.368 35.6756 263.432 36.3077 264.234 37.2508C265.037 38.1939 265.438 39.4281 265.438 40.9531C265.438 42.3378 265.107 43.5618 264.445 44.6254C263.803 45.6889 262.9 46.5317 261.736 47.1538C260.572 47.7558 259.238 48.0568 257.733 48.0568H249.906ZM251.472 45.1672H257.733C258.656 45.1672 259.468 45.0067 260.171 44.6856C260.873 44.3645 261.425 43.8929 261.826 43.2709C262.228 42.6488 262.428 41.8762 262.428 40.9531C262.428 40.0903 262.228 39.3779 261.826 38.816C261.425 38.2541 260.873 37.8327 260.171 37.5518C259.468 37.2508 258.656 37.1003 257.733 37.1003H251.472V45.1672ZM251.472 34.2107H257.1C258.244 34.2107 259.177 33.9297 259.9 33.3679C260.642 32.806 261.014 31.9531 261.014 30.8093C261.014 29.6655 260.642 28.8227 259.9 28.2809C259.177 27.719 258.244 27.4381 257.1 27.4381H251.472V34.2107Z" fill="white"/>
<path d="M277.257 48.1772C275.632 48.1772 274.197 47.8261 272.953 47.1237C271.709 46.4013 270.726 45.418 270.003 44.1739C269.301 42.9097 268.95 41.4649 268.95 39.8394C268.95 38.1939 269.301 36.7491 270.003 35.505C270.726 34.2408 271.709 33.2575 272.953 32.5552C274.197 31.8327 275.632 31.4715 277.257 31.4715C278.863 31.4715 280.287 31.8327 281.532 32.5552C282.776 33.2575 283.749 34.2408 284.451 35.505C285.174 36.7491 285.535 38.1939 285.535 39.8394C285.535 41.4649 285.184 42.9097 284.481 44.1739C283.779 45.418 282.806 46.4013 281.562 47.1237C280.318 47.8261 278.883 48.1772 277.257 48.1772ZM277.257 45.4682C278.301 45.4682 279.224 45.2274 280.027 44.7458C280.829 44.2642 281.451 43.602 281.893 42.7592C282.354 41.9164 282.585 40.9431 282.585 39.8394C282.585 38.7358 282.354 37.7625 281.893 36.9197C281.451 36.0568 280.829 35.3846 280.027 34.903C279.224 34.4214 278.301 34.1806 277.257 34.1806C276.214 34.1806 275.291 34.4214 274.488 34.903C273.685 35.3846 273.053 36.0568 272.592 36.9197C272.13 37.7625 271.899 38.7358 271.899 39.8394C271.899 40.9431 272.13 41.9164 272.592 42.7592C273.053 43.602 273.685 44.2642 274.488 44.7458C275.291 45.2274 276.214 45.4682 277.257 45.4682Z" fill="white"/>
<path d="M296.094 48.0568C295.091 48.0568 294.188 47.806 293.385 47.3043C292.583 46.7826 291.95 46.0802 291.489 45.1973C291.027 44.3144 290.797 43.321 290.797 42.2174V27.8595C290.797 27.418 290.937 27.0568 291.218 26.7759C291.499 26.495 291.86 26.3545 292.302 26.3545C292.743 26.3545 293.104 26.495 293.385 26.7759C293.666 27.0568 293.807 27.418 293.807 27.8595V42.2174C293.807 43.02 294.027 43.6923 294.469 44.2341C294.91 44.7759 295.452 45.0468 296.094 45.0468H297.118C297.479 45.0468 297.78 45.1873 298.021 45.4682C298.282 45.7491 298.412 46.1103 298.412 46.5518C298.412 46.9933 298.241 47.3545 297.9 47.6354C297.579 47.9164 297.158 48.0568 296.636 48.0568H296.094ZM289.412 34.7826C288.991 34.7826 288.649 34.6622 288.389 34.4214C288.128 34.1806 287.997 33.8796 287.997 33.5184C287.997 33.117 288.128 32.796 288.389 32.5552C288.649 32.3143 288.991 32.1939 289.412 32.1939H296.365C296.787 32.1939 297.128 32.3143 297.389 32.5552C297.649 32.796 297.78 33.117 297.78 33.5184C297.78 33.8796 297.649 34.1806 297.389 34.4214C297.128 34.6622 296.787 34.7826 296.365 34.7826H289.412Z" fill="white"/>
<path d="M142.391 48.0568C140.886 48.0568 139.552 47.7457 138.388 47.1237C137.224 46.4815 136.311 45.6187 135.649 44.535C134.987 43.4314 134.656 42.1972 134.656 40.8327C134.656 40.3712 134.786 39.9999 135.047 39.719C135.328 39.418 135.659 39.2675 136.04 39.2675C136.441 39.2675 136.773 39.418 137.033 39.719C137.294 39.9999 137.425 40.3712 137.425 40.8327C137.425 41.6554 137.635 42.418 138.057 43.1203C138.478 43.8026 139.05 44.3544 139.773 44.7758C140.495 45.1772 141.308 45.3778 142.211 45.3778C143.535 45.3778 144.599 45.0166 145.401 44.2942C146.224 43.5518 146.635 42.5183 146.635 41.1939C146.635 40.3511 146.455 39.5986 146.094 38.9364C145.732 38.2541 145.241 37.7123 144.619 37.311C143.997 36.9096 143.294 36.7089 142.512 36.7089C142.07 36.7089 141.699 36.5584 141.398 36.2574C141.117 35.9564 140.977 35.5852 140.977 35.1437C140.977 34.7023 141.117 34.3411 141.398 34.0601C141.699 33.7591 142.07 33.6086 142.512 33.6086C143.074 33.6086 143.615 33.4681 144.137 33.1872C144.659 32.8862 145.09 32.4949 145.431 32.0133C145.773 31.5116 145.943 30.9498 145.943 30.3277C145.943 29.4447 145.622 28.7023 144.98 28.1003C144.338 27.4982 143.515 27.1972 142.512 27.1972C141.749 27.1972 141.047 27.3477 140.405 27.6487C139.783 27.9497 139.281 28.3511 138.9 28.8528C138.538 29.3544 138.358 29.9163 138.358 30.5384C138.358 30.9999 138.227 31.3912 137.967 31.7123C137.706 32.0133 137.375 32.1638 136.973 32.1638C136.592 32.1638 136.261 32.0233 135.98 31.7424C135.719 31.4414 135.589 31.0702 135.589 30.6287C135.589 29.4648 135.89 28.4213 136.492 27.4982C137.094 26.5752 137.916 25.8528 138.96 25.331C140.003 24.7892 141.167 24.5183 142.452 24.5183C143.635 24.5183 144.699 24.7792 145.642 25.3009C146.605 25.8026 147.358 26.4949 147.9 27.3778C148.462 28.2407 148.742 29.224 148.742 30.3277C148.742 31.1103 148.562 31.8026 148.201 32.4046C147.86 33.0066 147.418 33.5283 146.876 33.9698C146.334 34.3912 145.763 34.7424 145.161 35.0233C146.224 35.3845 147.087 35.8762 147.749 36.4982C148.411 37.1003 148.893 37.8026 149.194 38.6053C149.515 39.4079 149.676 40.2809 149.676 41.224C149.676 42.5283 149.344 43.7023 148.682 44.7457C148.02 45.7691 147.137 46.5819 146.033 47.1839C144.93 47.7658 143.716 48.0568 142.391 48.0568Z" fill="#1B1B1D"/>
</svg>
